<?xml version="1.0" standalone="no"?>
<!DOCTYPE svg PUBLIC "-//W3C//DTD SVG 20010904//EN"
 "http://www.w3.org/TR/2001/REC-SVG-20010904/DTD/svg10.dtd">
<svg version="1.0" xmlns="http://www.w3.org/2000/svg"
 width="348.000000pt" height="348.000000pt" viewBox="0 0 348.000000 348.000000"
 preserveAspectRatio="xMidYMid meet">

<g transform="translate(0.000000,348.000000) scale(0.100000,-0.100000)"
fill="#000000" stroke="none">
<path d="M1690 3171 c-19 -4 -46 -13 -60 -21 -44 -23 -993 -571 -1037 -598
-53 -33 -68 -64 -50 -99 17 -32 1057 -639 1132 -660 56 -16 122 -10 170 14 87
45 1053 608 1073 626 12 11 22 32 22 47 0 15 -10 36 -22 47 -18 16 -1007 592
-1083 630 -29 15 -105 22 -145 14z m198 -396 c64 -35 86 -71 79 -129 -3 -22
-9 -64 -12 -93 -7 -49 -6 -52 20 -66 l28 -14 -103 -58 c-56 -32 -111 -60 -121
-62 -22 -6 -89 56 -89 82 0 9 7 47 16 86 14 63 14 72 0 94 -34 51 -134 53
-216 2 -50 -31 -116 -93 -141 -133 l-21 -34 -31 18 c-18 10 -54 31 -81 47
l-50 28 45 39 c102 89 228 163 354 205 58 19 87 23 170 20 89 -2 106 -6 153
-32z m279 -395 c46 -25 82 -49 80 -53 -1 -4 -49 -34 -107 -67 l-105 -58 -75
40 c-41 23 -81 46 -88 52 -9 9 12 26 95 74 60 34 110 60 113 59 3 -1 42 -22
87 -47z"/>
<path d="M470 2280 c-20 -20 -20 -33 -20 -592 0 -364 4 -587 10 -610 25 -90
40 -100 600 -424 330 -190 535 -303 553 -304 15 0 36 9 47 20 20 20 20 33 20
597 l0 578 -24 50 c-13 28 -39 64 -57 81 -19 17 -216 136 -439 264 -223 128
-455 262 -515 297 -61 34 -120 63 -133 63 -12 0 -31 -9 -42 -20z m391 -436
c162 -48 322 -172 385 -299 34 -69 36 -78 32 -155 -3 -79 -5 -84 -36 -110 -18
-15 -50 -33 -72 -40 -45 -15 -68 -36 -78 -73 l-7 -25 -90 52 c-89 51 -90 53
-93 94 -5 60 11 80 94 118 85 39 101 62 84 123 -21 80 -136 151 -245 151 l-55
0 0 90 c0 102 -3 99 81 74z m179 -764 l45 -26 3 -108 3 -108 -28 20 c-15 10
-58 36 -95 56 l-68 38 0 104 0 105 48 -28 c26 -15 67 -39 92 -53z"/>
<path d="M2435 2006 c-280 -161 -527 -308 -548 -326 -21 -19 -48 -52 -60 -74
-22 -41 -22 -44 -22 -634 0 -576 1 -594 19 -608 34 -25 66 -16 180 50 687 396
935 541 953 559 13 11 34 43 48 71 l25 50 0 583 c0 570 0 583 -20 603 -11 11
-30 20 -42 20 -13 0 -252 -132 -533 -294z m219 -210 c39 -16 56 -55 56 -128 0
-65 -30 -147 -87 -238 -68 -108 -103 -179 -103 -209 0 -22 -13 -33 -88 -76
-103 -59 -112 -62 -112 -38 0 52 34 133 105 249 70 114 79 134 80 178 0 67
-17 76 -81 46 -30 -14 -82 -56 -131 -107 l-83 -84 0 89 0 89 58 50 c108 94
201 152 287 179 52 17 60 17 99 0z m-134 -790 l0 -105 -94 -55 c-52 -31 -98
-56 -101 -56 -3 0 -4 46 -3 102 l3 102 95 57 c52 32 96 58 98 58 1 1 2 -46 2
-103z"/>
</g>
</svg>
